<svg id="Layer_1" enable-background="new 0 0 510.049 510.049" height="512" viewBox="0 0 510.049 510.049" width="512" xmlns="http://www.w3.org/2000/svg"><g><g fill="#b5dbff"><path id="XMLID_2326_" d="m480.055 255.024c-32.533 0-79.538 0-90.03 0l-15 15-15-15c-45.057 0-67.569 0-94.5 0v102.041c5.315 17.471 12.105 33.694 20.256 48.184 23.344 41.5 55.257 64.354 89.861 64.354 34.605 0 66.52-22.854 89.862-64.354 16.454-29.251 27.363-65.565 31.79-104.935z"/><path id="XMLID_2143_" d="m360.024 255.024h30v30h-30z"/><path id="XMLID_2101_" d="m360.024 315.024h30v30h-30z"/><path id="XMLID_1820_" d="m360.024 375.024h30v30h-30z"/><path id="XMLID_827_" d="m390.024 478.768v-43.744h-30v43.744c9.647 1.613 19.618 1.736 30 0z"/></g><path id="XMLID_824_" d="m270.024 255.024h-15v105.687c5.793 19.04 13.189 36.725 22.073 52.517 25.439 45.225 60.216 70.131 97.927 70.131 37.71 0 72.488-24.906 97.927-70.131 33.741-59.986 36.969-128.309 37.098-158.203h-29.995c-.142 28.176-3.226 90.119-33.25 143.496-41.163 73.178-102.48 73.028-143.559 0-21.423-38.086-33.221-89.047-33.221-143.497z" fill="#00dc7b"/><path id="XMLID_2145_" d="m490.631 145.631-21.213-21.213-19.394 19.393-19.393-19.393-21.213 21.213 25.606 25.606v38.787h30v-38.787z" fill="#c6ea4b"/><path id="XMLID_823_" d="m360.024 45.024v-30h-30v30h-30v30h30v75h30v-75h90v-30z" fill="#b5dbff"/><path id="XMLID_2335_" d="m430.631 124.418-21.213 21.213 25.606 25.606v38.787h30v-38.787l25.607-25.606-21.213-21.213-19.394 19.393z" fill="#c6ea4b"/><path id="XMLID_2151_" d="m153.664 332.598-21.213-21.213-15.91 15.91-15.91-15.91-21.213 21.213 15.91 15.91-15.91 15.91 21.213 21.213 15.91-15.91 15.91 15.91 21.213-21.213-15.91-15.91z" fill="#ff4d4d"/><path id="XMLID_817_" d="m75.024 420.024h90v30h-90z" fill="#72bbff"/><path id="XMLID_2150_" d="m75.024 480.024h90v30h-90z" fill="#72bbff"/><path id="XMLID_2384_" d="m100.631 385.631 15.91-15.91 15.91 15.91 21.213-21.213-15.91-15.91 15.91-15.91-21.213-21.213-15.91 15.91-15.91-15.91-21.213 21.213 15.91 15.91-15.91 15.91z" fill="#ff884d"/><path id="XMLID_2381_" d="m75.024 420.024h90v30h-90z" fill="#72bbff"/><path id="XMLID_2380_" d="m75.024 480.024h90v30h-90z" fill="#72bbff"/><path id="XMLID_806_" d="m29.994 255.024h90.03l15-15 15 15h94.5v-102.041c-5.315-17.47-12.105-33.693-20.256-48.184-23.343-41.5-55.257-64.354-89.861-64.354-34.605 0-66.519 22.854-89.862 64.354-16.454 29.251-27.363 65.565-31.79 104.935z" fill="#edf5ff"/><path id="XMLID_805_" d="m120.024 225.024h30v30h-30z" fill="#d5e8fe"/><path id="XMLID_804_" d="m120.024 165.024h30v30h-30z" fill="#d5e8fe"/><path id="XMLID_803_" d="m120.024 105.024h30v30h-30z" fill="#d5e8fe"/><path id="XMLID_2153_" d="m120.024 31.279v43.745h30v-43.745c-9.773-1.63-19.709-1.716-30 0z" fill="#d5e8fe"/><path id="XMLID_802_" d="m240.024 255.024h15v-105.686c-5.793-19.04-13.19-36.725-22.073-52.517-25.439-45.225-60.217-70.131-97.927-70.131-37.711 0-72.488 24.906-97.927 70.131-33.741 59.987-36.968 128.309-37.097 158.203h29.995c.142-28.175 3.226-90.119 33.25-143.496 41.162-73.178 102.479-73.028 143.559 0 21.423 38.086 33.22 89.047 33.22 143.496z" fill="#c6ea4b"/><path id="XMLID_2147_" d="m255.024 510.024c-5.246 0-9.754 0-15 0 0-14.385 0-495.615 0-510h15l10 255z" fill="#ff884d"/><path id="XMLID_800_" d="m255.024.024h15v510h-15z" fill="#ff4d4d"/></g></svg>